Coordinates
version=1
nRows=4
nColumns=107
inDegrees=yes

Units are S.I. units (second, meters, Newtons, ...)
If the header above contains a line with 'inDegrees', this indicates whether rotational values are in degrees (yes) or radians (no).

endheader
time	sternoclavicular_r2	sternoclavicular_r3	unrotscap_r3	unrotscap_r2	acromioclavicular_r2	acromioclavicular_r3	acromioclavicular_r1	unrothum_r1	unrothum_r3	unrothum_r2	elv_angle	shoulder_elv	shoulder1_r2	shoulder_rot	elbow_flexion	pro_sup	deviation	flexion	proximal_distal_r1	proximal_distal_r3	cmc_flexion	cmc_abduction	mp_flexion	ip_flexion	mcp2_flexion	mcp2_abduction	pm2_flexion	md2_flexion	mcp3_flexion	mcp3_abduction	pm3_flexion	md3_flexion	mcp4_flexion	mcp4_abduction	pm4_flexion	md4_flexion	mcp5_flexion	mcp5_abduction	pm5_flexion	md5_flexion	bicpt_tx	bicpt_ty	bicpt_tz	bicpt2_tx	bicpt2_ty	bicpt2_tz	ptpt_tx	ptpt_ty	ptpt_tz	FCUpt_tx	FCUpt_ty	FCUpt_tz	EDCpt_tx	EDCpt_ty	EDCpt_tz	APLpt_tx	APLpt_ty	APLpt_tz	FPLpt_tx	FPLpt_ty	FPLpt_tz	FPLpt2_tx	FPLpt2_ty	FPLpt2_tz	PEC1pt2_tx	PEC1pt2_ty	PEC1pt2_tz	PEC1pt3_tx	PEC1pt3_ty	PEC1pt3_tz	PEC2pt2_tx	PEC2pt2_ty	PEC2pt2_tz	PEC2pt3_tx	PEC2pt3_ty	PEC2pt3_tz	PEC3pt2_tx	PEC3pt2_ty	PEC3pt2_tz	PEC3pt3_tx	PEC3pt3_ty	PEC3pt3_tz	DELT2pt2a_tx	DELT2pt2a_ty	DELT2pt2a_tz	DELT2pt2_tx	DELT2pt2_ty	DELT2pt2_tz	LAT1pt2_tx	LAT1pt2_ty	LAT1pt2_tz	LAT1pt3_tx	LAT1pt3_ty	LAT1pt3_tz	LAT2pt2_tx	LAT2pt2_ty	LAT2pt2_tz	LAT2pt3_tx	LAT2pt3_ty	LAT2pt3_tz	LAT3pt2_tx	LAT3pt2_ty	LAT3pt2_tz	LAT3pt3_tx	LAT3pt3_ty	LAT3pt3_tz
      0.00000000	     -0.32239115	      0.13654968	     -0.13654968	      0.32239115	     -0.06527765	      0.52755101	      0.23713055	     -0.23713055	     -0.52755101	      0.06527765	     97.52489386	     76.32897068	     -1.70213050	    -20.42565241	     30.87721780	     25.02183422	      0.18419888	     -0.67686935	      0.22221336	     -0.33843467	      9.49027578	     14.86546103	    -39.58484779	    -61.19338053	     10.66177449	     12.83712682	     10.38194881	    -22.89850065	     80.06208788	     10.34076463	     79.34784736	     30.34772154	     74.97286720	     -8.55023003	     69.95285088	     27.10809242	     16.91387138	    -13.98673561	    -13.24985107	      4.86879332	      0.00092132	     -0.03113900	     -0.00487004	      0.01628980	     -0.01858795	     -0.00891170	      0.00570117	     -0.06609548	     -0.00206564	      0.00630688	     -0.18377479	     -0.00019562	     -0.00300261	      0.00080557	      0.00019315	      0.00030885	      0.00012354	      0.00061771	      0.00039533	      0.00118600	      0.00066712	      0.00003332	     -0.00018722	     -0.00022467	      0.00250190	      0.00877784	      0.00610632	     -0.00818417	      0.01976074	     -0.01874302	      0.00250190	      0.00877784	      0.00610632	      0.00055127	      0.01831897	     -0.00962594	      0.00395407	      0.00488124	      0.01598260	      0.00000000	      0.00779186	      0.00000000	     -0.00716645	     -0.03311832	     -0.00642481	      0.01402067	     -0.00044505	     -0.00344737	     -0.00089051	      0.01492657	     -0.00610632	      0.00245949	      0.02154175	     -0.01781011	     -0.00597911	      0.01293353	     -0.00547025	     -0.01246708	      0.02730883	     -0.03057402	     -0.02340757	      0.01446011	     -0.00733607	     -0.01552024	      0.03154933	     -0.03820692
      0.03333333	     -0.32262064	      0.13664688	     -0.13664688	      0.32262064	     -0.06532412	      0.52792654	      0.23729935	     -0.23729935	     -0.52792654	      0.06532412	     97.63517310	     76.38330492	     -1.70405524	    -20.35402178	     30.66177773	     25.13764570	      0.18146193	     -0.67638163	      0.21931745	     -0.33819081	      8.78282315	     14.34594056	    -39.69057911	    -61.19932682	     10.71517478	     12.81309236	     10.55147713	    -22.84901940	     79.72691714	     10.19414965	     79.02294344	     30.17265454	     74.62563612	     -8.30575849	     69.98432508	     27.04520827	     17.18396454	    -13.95490036	    -13.37832777	      4.83693875	      0.00091420	     -0.03111431	     -0.00486606	      0.01629401	     -0.01852942	     -0.00890178	      0.00569261	     -0.06610102	     -0.00207497	      0.00631800	     -0.18377288	     -0.00019775	     -0.00301651	      0.00080974	      0.00019327	      0.00030891	      0.00012356	      0.00061781	      0.00039540	      0.00118620	      0.00066724	      0.00003416	     -0.00017676	     -0.00021212	      0.00250368	      0.00878409	      0.00611067	     -0.00818999	      0.01977481	     -0.01875636	      0.00250368	      0.00878409	      0.00611067	      0.00055166	      0.01833201	     -0.00963279	      0.00395612	      0.00488472	      0.01598761	      0.00000000	      0.00780303	      0.00000000	     -0.00717155	     -0.03314190	     -0.00643409	      0.01397979	     -0.00044283	     -0.00342197	     -0.00089114	      0.01493719	     -0.00611067	      0.00246124	      0.02155708	     -0.01782279	     -0.00598336	      0.01294274	     -0.00547414	     -0.01247595	      0.02732827	     -0.03059578	     -0.02342423	      0.01447040	     -0.00734129	     -0.01553129	      0.03157179	     -0.03823412
      0.06666667	     -0.32284153	      0.13674043	     -0.13674043	      0.32284153	     -0.06536884	      0.52828799	      0.23746182	     -0.23746182	     -0.52828799	      0.06536884	     97.75176876	     76.43560186	     -1.70609021	    -20.26646605	     30.41947685	     25.19392530	      0.18052939	     -0.67569617	      0.21832795	     -0.33784808	      8.71464367	     14.30638846	    -39.69826240	    -61.19540462	     10.75571600	     12.81954714	     10.57226767	    -22.84067888	     79.67664444	     10.17543015	     78.98989285	     30.16059830	     74.57299623	     -8.29049584	     69.97972260	     27.04173000	     17.20595022	    -13.93086309	    -13.38414221	      4.83538350	      0.00090618	     -0.03108654	     -0.00486159	      0.01629599	     -0.01846360	     -0.00889692	      0.00568845	     -0.06610371	     -0.00207951	      0.00632341	     -0.18377194	     -0.00019877	     -0.00302326	      0.00081178	      0.00019331	      0.00030898	      0.00012359	      0.00061796	      0.00039549	      0.00118648	      0.00066740	      0.00003424	     -0.00017567	     -0.00021081	      0.00250539	      0.00879010	      0.00611485	     -0.00819560	      0.01978834	     -0.01876920	      0.00250539	      0.00879010	      0.00611485	      0.00055204	      0.01834456	     -0.00963939	      0.00395810	      0.00488806	      0.01599241	      0.00000000	      0.00781380	      0.00000000	     -0.00717646	     -0.03316459	     -0.00644303	      0.01392954	     -0.00044013	     -0.00339125	     -0.00089175	      0.01494742	     -0.00611485	      0.00246293	      0.02157184	     -0.01783499	     -0.00598746	      0.01295160	     -0.00547789	     -0.01248449	      0.02734698	     -0.03061673	     -0.02344027	      0.01448031	     -0.00734632	     -0.01554192	      0.03159341	     -0.03826030
      0.10000000	     -0.32039500	      0.13570420	     -0.13570420	      0.32039500	     -0.06487347	      0.52428457	      0.23566231	     -0.23566231	     -0.52428457	      0.06487347	     98.14981464	     75.85636484	     -1.71303743	    -23.14754876	     30.90253207	     28.91755648	      0.17873534	     -0.60771158	      0.21642146	     -0.30385579	      7.72973240	     12.53489085	    -39.74824525	    -58.68675611	      8.56554838	     12.79808793	     14.09749468	    -25.04153237	     78.41270122	      9.88654043	     77.78565099	     36.34976302	     72.86401612	     -7.79586182	     69.98701653	     30.71815893	     17.11996645	    -13.87609074	    -14.59280052	      4.83368909	      0.00092216	     -0.03114190	     -0.00487051	      0.01641321	     -0.01859482	     -0.00856700	      0.00541332	     -0.06628161	     -0.00237946	      0.00668342	     -0.18370817	     -0.00026150	     -0.00347010	      0.00094838	      0.00019270	      0.00031250	      0.00012500	      0.00062501	      0.00040000	      0.00120001	      0.00067501	      0.00003543	     -0.00016005	     -0.00019206	      0.00248641	      0.00872349	      0.00606851	     -0.00813349	      0.01963839	     -0.01862697	      0.00248641	      0.00872349	      0.00606851	      0.00054785	      0.01820554	     -0.00956634	      0.00393616	      0.00485102	      0.01593878	      0.00000000	      0.00769500	      0.00000000	     -0.00712208	     -0.03291326	     -0.00634440	      0.01552631	     -0.00053052	     -0.00446718	     -0.00088499	      0.01483415	     -0.00606851	      0.00244426	      0.02140837	     -0.01769983	     -0.00594209	      0.01285345	     -0.00543638	     -0.01238988	      0.02713974	     -0.03038471	     -0.02326264	      0.01437058	     -0.00729065	     -0.01542414	      0.03135399	     -0.03797036
